<svg width="current" height="current" viewBox="0 0 765 188" fill="none" xmlns="http://www.w3.org/2000/svg">
<path fill-rule="evenodd" clip-rule="evenodd" d="M41.5314 122.375C37.3369 124.7 32.0753 123.227 29.7792 119.084L4.15599 72.8589C1.86061 68.718 3.40023 63.4766 7.59469 61.1515L58.0031 33.2097C62.1963 30.8854 67.4571 32.3572 69.7525 36.4982C86.2 66.1704 75.1767 103.725 45.1322 120.379L41.5314 122.375Z" fill="#FFBA5F"/>
<path fill-rule="evenodd" clip-rule="evenodd" d="M645.008 55.0826C644.489 55.3471 644.03 55.7137 643.693 56.1889C642.648 57.6619 640.511 61.1101 641.628 63.3023L678.139 134.958C679.59 137.807 683.104 138.925 685.988 137.456L759.301 100.102C762.184 98.6325 763.345 95.1318 761.893 92.2831C740.277 49.8596 687.946 33.2045 645.008 55.0826Z" fill="#FF6B39"/>
<path fill-rule="evenodd" clip-rule="evenodd" d="M72.5284 126.22C70.0275 130.071 71.121 135.22 74.9734 137.722L91.2188 148.272C95.0699 150.773 100.22 149.678 102.721 145.827L113.271 129.581C115.772 125.73 114.677 120.581 110.826 118.08C98.0018 109.752 80.856 113.397 72.5284 126.22Z" fill="#4461A8"/>
<path d="M173.056 79.93C173.056 70.55 165.986 64.25 153.596 64.25H135.396V108H149.186V96.24H152.686C166.126 96.24 173.056 90.5 173.056 79.93ZM159.406 80.21C159.406 84.13 157.236 86.02 152.266 86.09L148.766 86.16V74.75H152.546C157.096 74.75 159.406 76.57 159.406 80.21ZM181.578 108H212.238V96.73H195.368V64.25H181.578V108ZM264.802 108L250.032 64.25H232.462L217.412 108H230.992L233.582 99.81H248.422L251.152 108H264.802ZM241.142 74.12L245.762 89.45H236.242L241.142 74.12ZM291.216 91.83L306.406 64.25H291.986L284.566 79.93L276.866 64.25H262.446L277.706 91.76V108H291.216V91.83ZM329.048 108H359.708V96.73H342.838V64.25H329.048V108ZM368.943 108H382.733V64.25H368.943V108ZM426.983 77.69L431.113 66.28C426.913 64.39 421.943 63.2 416.343 63.2C401.013 63.2 391.843 72.09 391.843 86.3C391.843 101.42 401.153 109.05 415.783 109.05C420.963 109.05 427.193 107.79 430.623 106.11L427.613 94.28C424.183 96.31 420.613 97.5 416.483 97.5C409.413 97.5 405.703 93.09 405.703 86.02C405.703 79.02 409.763 74.75 416.483 74.75C420.053 74.75 423.973 75.94 426.983 77.69ZM439.292 108H473.452V97.29H452.732V91.41H469.112V80.7H452.732V74.96H473.452V64.25H439.292V108ZM513.256 64.25V89.1L497.716 64.25H482.876V108H495.686V83.22L511.436 108.42H526.066V64.25H513.256ZM552.674 97.92C547.074 97.92 541.334 96.17 536.574 93.86L534.474 105.13C538.464 107.3 545.184 109.05 552.464 109.05C565.134 109.05 571.714 103.03 571.714 94.28C571.714 85.95 564.434 82.8 557.504 80.91C553.164 79.79 548.964 78.74 548.964 76.71C548.964 74.96 550.434 74.4 553.164 74.4C557.714 74.4 563.594 75.94 568.564 78.39L570.734 67.12C566.534 64.95 560.934 63.27 553.094 63.27C541.124 63.27 535.174 68.8 535.174 77.41C535.174 86.37 543.294 89.31 549.734 91.2C554.844 92.74 557.924 93.23 557.924 95.4C557.924 97.29 555.824 97.92 552.674 97.92ZM580.64 108H614.8V97.29H594.08V91.41H610.46V80.7H594.08V74.96H614.8V64.25H580.64V108ZM294.212 145.104H299.036V141.252H284.276V145.104H289.604V146.724C289.604 152.412 287.876 158.352 283.052 161.412L285.86 164.904C288.848 163.032 290.792 159.792 291.944 156.012C293.024 159.504 294.932 162.348 297.848 164.112L300.62 160.656C295.832 157.848 294.212 152.268 294.212 146.724V145.104ZM300.944 149.244H296.732V153.096H300.944V169.584H305.372V138.48H300.944V149.244ZM307.64 137.904V171.06H312.14V137.904H307.64ZM339.118 153.096C333.898 151.404 331.63 147.48 331.522 143.664H338.002V139.884H320.074V143.664H326.662C326.554 147.768 324.214 151.908 318.814 153.672L321.298 157.38C325.114 156.12 327.706 153.564 329.182 150.36C330.622 153.276 333.106 155.616 336.706 156.768L339.118 153.096ZM323.278 163.176H340.666V171.132H345.418V159.396H323.278V163.176ZM349.81 145.932H345.418V137.94H340.666V157.92H345.418V149.856H349.81V145.932ZM367.139 140.496H362.351V145.32C362.351 151.476 359.831 157.812 354.251 160.44L357.095 164.292C360.839 162.456 363.323 158.964 364.763 154.752C366.131 158.712 368.471 161.916 371.927 163.68L374.807 159.936C369.479 157.308 367.139 151.296 367.139 145.32V140.496ZM385.715 150.684H380.891V137.94H376.139V171.096H380.891V154.644H385.715V150.684ZM427.921 137.94H423.421V162.744H427.921V137.94ZM416.797 161.772H421.225V138.516H416.797V145.5H412.837V149.352H416.797V161.772ZM415.825 154.068C411.685 152.052 410.101 148.308 410.101 144.42V140.172H405.493V144.42C405.493 148.38 403.765 152.664 399.229 154.896L401.821 158.496C404.737 157.128 406.681 154.752 407.869 151.944C408.913 154.428 410.641 156.48 413.233 157.704L415.825 154.068ZM410.353 166.74V159.864H405.601V170.52H428.749V166.74H410.353ZM441.506 153.636H451.01V149.928H441.506V144.528H452.126V140.712H436.79V163.644H439.49C445.07 163.644 449.318 163.536 454.106 162.78L453.674 158.964C449.606 159.612 445.97 159.792 441.506 159.828V153.636ZM458.354 137.904V149.604H452.666V153.42H458.354V171.168H463.106V137.904H458.354Z" fill="black"/>
<path d="M117.784 10.792C118.384 8.56 118.384 6.76 118.384 5.032V3.208H103.504V5.2H115.936C115.936 6.832 115.912 8.392 115.36 10.528L117.784 10.792ZM110.944 21.952C107.728 21.952 105.76 21.16 105.76 19.792C105.76 18.448 107.728 17.656 110.944 17.656C114.136 17.656 116.056 18.448 116.056 19.792C116.056 21.16 114.136 21.952 110.944 21.952ZM110.944 15.76C106.264 15.76 103.312 17.296 103.312 19.792C103.312 22.312 106.264 23.848 110.944 23.848C115.552 23.848 118.528 22.312 118.528 19.792C118.528 17.296 115.552 15.76 110.944 15.76ZM111.424 12.088V8.104H108.928V12.088H101.248V14.08H120.784V12.088H111.424ZM125.942 9.016C125.942 7.048 127.358 5.704 129.254 5.704C131.102 5.704 132.518 7.048 132.518 9.016C132.518 11.032 131.102 12.376 129.254 12.376C127.358 12.376 125.942 11.032 125.942 9.016ZM138.782 7.408V10.624H134.63C134.798 10.12 134.87 9.592 134.87 9.016C134.87 8.44 134.798 7.912 134.63 7.408H138.782ZM138.782 12.64V18.136H141.254V2.2H138.782V5.392H133.574C132.566 4.24 131.03 3.52 129.254 3.52C126.038 3.52 123.59 5.824 123.59 9.016C123.59 12.208 126.038 14.512 129.254 14.512C131.03 14.536 132.566 13.816 133.574 12.64H138.782ZM129.686 21.424V16.528H127.214V23.44H141.806V21.424H129.686ZM146.052 26.8C148.524 25.864 149.988 23.92 149.988 21.4C149.988 19.552 149.196 18.424 147.852 18.424C146.796 18.424 145.932 19.12 145.932 20.2C145.932 21.352 146.796 21.976 147.78 21.976C147.876 21.976 147.948 21.976 148.044 21.952C148.02 23.368 147.06 24.568 145.428 25.24L146.052 26.8ZM160.559 9.016C160.559 7.048 161.975 5.704 163.871 5.704C165.719 5.704 167.135 7.048 167.135 9.016C167.135 11.032 165.719 12.376 163.871 12.376C161.975 12.376 160.559 11.032 160.559 9.016ZM173.399 7.408V10.624H169.247C169.415 10.12 169.487 9.592 169.487 9.016C169.487 8.44 169.415 7.912 169.247 7.408H173.399ZM173.399 12.64V18.136H175.871V2.2H173.399V5.392H168.191C167.183 4.24 165.647 3.52 163.871 3.52C160.655 3.52 158.207 5.824 158.207 9.016C158.207 12.208 160.655 14.512 163.871 14.512C165.647 14.536 167.183 13.816 168.191 12.64H173.399ZM164.303 21.424V16.528H161.831V23.44H176.423V21.424H164.303ZM182.061 18.064H194.805V23.92H197.301V16.072H182.061V18.064ZM196.701 11.152C197.181 8.368 197.181 6.304 197.181 4.672V3.16H182.445V5.176H194.757C194.757 6.712 194.709 8.632 194.205 11.152H179.973V13.168H199.629V11.152H196.701ZM202.748 26.8C205.22 25.864 206.684 23.92 206.684 21.4C206.684 19.552 205.892 18.424 204.548 18.424C203.492 18.424 202.628 19.12 202.628 20.2C202.628 21.352 203.492 21.976 204.476 21.976C204.572 21.976 204.644 21.976 204.74 21.952C204.716 23.368 203.756 24.568 202.124 25.24L202.748 26.8ZM229.351 9.88H219.439V5.248H229.351V9.88ZM231.799 3.28H216.991V11.848H231.799V3.28ZM234.247 14.512H214.591V16.504H219.391V23.968H221.863V16.504H227.047V23.968H229.495V16.504H234.247V14.512ZM244.685 6.376H249.509V4.336H237.365V6.376H242.189V8.44C242.189 12.16 239.957 16.192 236.597 17.752L238.013 19.72C240.557 18.496 242.501 15.928 243.461 12.904C244.469 15.712 246.413 18.064 248.933 19.168L250.301 17.224C246.917 15.784 244.685 12.04 244.685 8.44V6.376ZM252.029 2.176V23.848H254.525V2.176H252.029ZM274.251 13.264H276.723V2.176H274.251V7.12H270.027V9.136H274.251V13.264ZM260.331 3.184V5.128H267.339C267.291 5.728 267.171 6.304 266.979 6.856L259.275 7.144L259.635 9.088L265.971 8.608C264.747 10.144 262.587 11.344 259.275 12.16L260.163 14.056C266.979 12.352 269.955 8.8 269.955 3.184H260.331ZM265.107 21.64V19.72H276.723V14.2H262.611V16.12H274.275V17.896H262.659V23.584H277.323V21.64H265.107ZM289.552 12.16H296.968V4.096H287.056V6.112H294.52V10.168H287.104V18.736H288.88C292.888 18.736 295.792 18.592 299.128 17.992L298.864 15.976C295.816 16.528 293.104 16.672 289.552 16.696V12.16ZM306.4 10.6H303.064V2.128H300.568V23.872H303.064V12.664H306.4V10.6ZM323.654 2.152V23.896H326.15V2.152H323.654ZM314.606 3.76C311.39 3.76 309.038 6.736 309.038 11.392C309.038 16.096 311.39 19.048 314.606 19.048C317.846 19.048 320.198 16.096 320.198 11.392C320.198 6.736 317.846 3.76 314.606 3.76ZM314.606 5.992C316.502 5.992 317.822 8.032 317.822 11.392C317.822 14.8 316.502 16.84 314.606 16.84C312.734 16.84 311.414 14.8 311.414 11.392C311.414 8.032 312.734 5.992 314.606 5.992ZM345.876 18.304H348.348V2.176H345.876V7.048H341.484V9.088H345.876V18.304ZM343.188 12.976C339.948 11.8 338.124 8.992 338.124 6.064V3.496H335.604V6.016C335.604 9.232 333.732 12.28 330.348 13.48L331.668 15.4C334.164 14.44 335.964 12.52 336.924 10.096C337.836 12.28 339.54 14.032 341.868 14.896L343.188 12.976ZM336.732 21.424V16.6H334.236V23.44H348.852V21.424H336.732ZM371.266 12.76C366.994 11.992 363.514 8.656 363.514 5.2V3.568H360.898V5.2C360.898 8.632 357.418 11.968 353.146 12.76L354.202 14.8C357.73 14.08 360.778 11.824 362.194 8.848C363.61 11.824 366.658 14.08 370.186 14.8L371.266 12.76ZM352.474 19.024V21.064H372.106V19.024H352.474ZM376.52 16.36H378.368L378.752 6.76L378.848 3.928H376.064L376.136 6.76L376.52 16.36ZM377.432 22.312C378.488 22.312 379.304 21.52 379.304 20.392C379.304 19.264 378.488 18.424 377.432 18.424C376.4 18.424 375.608 19.264 375.608 20.392C375.608 21.52 376.4 22.312 377.432 22.312ZM401.777 8.176C398.585 7.504 396.713 5.728 396.713 3.688V2.728H394.145V3.688C394.145 5.848 392.321 7.768 389.057 8.488L390.113 10.384C392.705 9.784 394.529 8.392 395.465 6.568C396.401 8.248 398.225 9.472 400.745 10.048L401.777 8.176ZM394.409 16.192H396.881V13.288C398.705 13.192 400.553 12.976 402.353 12.664L402.161 10.888C397.553 11.488 392.225 11.512 388.217 11.512L388.505 13.528C390.281 13.528 392.297 13.528 394.409 13.432V16.192ZM403.505 21.616H393.929V19.648H403.505V21.616ZM403.505 17.728H393.929V15.664H391.481V23.584H405.977V15.664H403.505V17.728ZM403.481 2.176V14.656H405.977V2.176H403.481ZM425.223 6.328C425.223 8.92 425.223 11.992 424.383 16.24L426.879 16.504C427.719 12.016 427.719 9.016 427.719 6.328V4.192H412.287V6.208H425.223V6.328ZM420.039 18.976V11.344H417.543V18.976H410.247V21.016H429.831V18.976H420.039ZM449.356 7.624V9.64H453.196V15.088H455.668V2.176H453.196V7.624H449.356ZM450.604 12.448C447.364 11.32 445.516 8.632 445.516 5.92V5.632H450.028V3.64H438.436V5.632H443.02V5.944C443.02 8.92 441.076 11.8 437.716 13L438.988 14.968C441.556 14.056 443.38 12.136 444.34 9.76C445.252 11.848 446.98 13.552 449.38 14.392L450.604 12.448ZM448.468 21.952C445.372 21.952 443.62 21.184 443.62 19.768C443.62 18.352 445.372 17.584 448.468 17.584C451.516 17.584 453.292 18.352 453.292 19.768C453.292 21.184 451.516 21.952 448.468 21.952ZM448.468 15.664C443.932 15.664 441.148 17.2 441.148 19.768C441.148 22.36 443.932 23.872 448.468 23.872C452.98 23.872 455.764 22.36 455.764 19.768C455.764 17.2 452.98 15.664 448.468 15.664ZM472.226 10.72C469.586 11.296 467.258 11.416 463.106 11.44V5.752H470.282V3.736H460.634V13.456H462.386C467.09 13.456 469.658 13.312 472.49 12.736L472.226 10.72ZM469.73 21.856C466.73 21.856 464.954 21.04 464.954 19.576C464.954 18.112 466.73 17.32 469.73 17.32C472.73 17.32 474.506 18.112 474.506 19.576C474.506 21.04 472.73 21.856 469.73 21.856ZM469.73 15.328C465.29 15.328 462.506 16.936 462.506 19.576C462.506 22.24 465.29 23.872 469.73 23.872C474.17 23.872 476.954 22.24 476.954 19.576C476.954 16.936 474.17 15.328 469.73 15.328ZM476.762 7.576V2.176H474.242V14.896H476.762V9.616H479.786V7.576H476.762ZM488.184 17.152C486.432 17.152 485.16 15.952 485.16 14.128C485.16 12.304 486.432 11.104 488.184 11.104C489.936 11.104 491.208 12.304 491.208 14.128C491.208 15.952 489.936 17.152 488.184 17.152ZM488.184 9.064C485.064 9.064 482.808 11.176 482.808 14.128C482.808 17.104 485.064 19.192 488.184 19.192C491.28 19.192 493.56 17.104 493.56 14.128C493.56 11.176 491.28 9.064 488.184 9.064ZM489.384 2.488H486.912V5.512H481.752V7.528H494.448V5.512H489.384V2.488ZM502.032 10.888H498.696V2.176H496.2V23.872H498.696V12.952H502.032V10.888ZM515.567 10.792H512.375C512.999 8.944 513.287 6.952 513.287 4.84H504.863V6.832H510.839C510.479 11.272 508.343 14.824 503.831 17.512L505.247 19.264C508.247 17.464 510.311 15.28 511.583 12.784H515.567V22.816H517.895V2.704H515.567V10.792ZM520.103 2.176V23.848H522.479V2.176H520.103ZM536.315 6.088H539.195V12.856C538.235 12.904 537.251 12.952 536.315 12.976V6.088ZM544.451 12.448C543.539 12.568 542.579 12.664 541.595 12.736V6.088H543.563V4.072H531.971V6.088H533.939V13C533.051 13.024 532.187 13.024 531.395 13.024L531.659 15.064C535.355 15.064 540.323 14.944 544.619 14.248L544.451 12.448ZM537.107 16.648H534.611V23.44H549.203V21.424H537.107V16.648ZM548.339 8.584V2.176H545.867V18.136H548.339V10.624H551.411V8.584H548.339ZM556.521 6.52H560.265V16.24H556.521V6.52ZM554.217 18.208H562.569V4.552H554.217V18.208ZM569.649 2.176V10.624H567.177V2.584H564.849V22.816H567.177V12.64H569.649V23.824H572.001V2.176H569.649ZM581.888 17.152C580.136 17.152 578.864 15.952 578.864 14.128C578.864 12.304 580.136 11.104 581.888 11.104C583.64 11.104 584.912 12.304 584.912 14.128C584.912 15.952 583.64 17.152 581.888 17.152ZM581.888 9.064C578.768 9.064 576.512 11.176 576.512 14.128C576.512 17.104 578.768 19.192 581.888 19.192C584.984 19.192 587.264 17.104 587.264 14.128C587.264 11.176 584.984 9.064 581.888 9.064ZM583.088 2.488H580.616V5.512H575.456V7.528H588.152V5.512H583.088V2.488ZM595.736 10.888H592.4V2.176H589.904V23.872H592.4V12.952H595.736V10.888ZM604.302 4.168H601.902V8.08C601.902 11.776 600.414 15.664 597.342 17.488L598.854 19.36C600.942 18.088 602.358 15.808 603.126 13.144C603.87 15.568 605.166 17.68 607.134 18.88L608.526 16.96C605.622 15.136 604.302 11.464 604.302 7.96V4.168ZM609.39 9.76H606.198V11.776H609.39V22.84H611.718V2.584H609.39V9.76ZM613.806 2.176V23.848H616.158V2.176H613.806ZM626.788 14.464C627.628 14.656 628.564 14.752 629.524 14.752C630.484 14.752 631.42 14.656 632.26 14.44V19.168H626.788V14.464ZM629.524 5.368C632.788 5.368 635.068 6.808 635.068 9.088C635.068 11.392 632.788 12.832 629.524 12.832C626.236 12.832 623.956 11.392 623.956 9.088C623.956 6.808 626.236 5.368 629.524 5.368ZM634.732 19.168V13.528C636.46 12.544 637.492 11.008 637.492 9.088C637.492 5.632 634.132 3.424 629.524 3.424C624.892 3.424 621.556 5.632 621.556 9.088C621.556 11.008 622.588 12.568 624.316 13.528V19.168H619.732V21.184H639.364V19.168H634.732ZM643.778 16.36H645.626L646.01 6.76L646.106 3.928H643.322L643.394 6.76L643.778 16.36ZM644.69 22.312C645.746 22.312 646.562 21.52 646.562 20.392C646.562 19.264 645.746 18.424 644.69 18.424C643.658 18.424 642.866 19.264 642.866 20.392C642.866 21.52 643.658 22.312 644.69 22.312Z" fill="black"/>
</svg>
